<mxfile host="app.diagrams.net" modified="2021-12-28T11:06:44.625Z" agent="5.0 (Macintosh; Intel Mac OS X 10_16_0) AppleWebKit/537.36 (KHTML, like Gecko) Chrome/80.0.3987.163 Safari/537.36" etag="mT7P5GTYdXp_IeI39ix-" version="16.1.0" type="github">
  <diagram id="fghGY0ya3qd3dH9HAjV5" name="第 1 页">
    <mxGraphModel dx="3285" dy="600" grid="1" gridSize="10" guides="1" tooltips="1" connect="1" arrows="1" fold="1" page="1" pageScale="1" pageWidth="2339" pageHeight="3300" math="0" shadow="0">
      <root>
        <mxCell id="0" />
        <mxCell id="1" parent="0" />
        <mxCell id="38tED85UZ_nWDZIvIJqj-3" value="传进来的如果是个beanName包含&amp;amp;就去掉" style="edgeStyle=orthogonalEdgeStyle;rounded=0;orthogonalLoop=1;jettySize=auto;html=1;exitX=0.5;exitY=1;exitDx=0;exitDy=0;" parent="1" source="38tED85UZ_nWDZIvIJqj-10" target="38tED85UZ_nWDZIvIJqj-2" edge="1">
          <mxGeometry relative="1" as="geometry" />
        </mxCell>
        <mxCell id="38tED85UZ_nWDZIvIJqj-5" value="首先会先尝试到三级缓存中查找" style="edgeStyle=orthogonalEdgeStyle;rounded=0;orthogonalLoop=1;jettySize=auto;html=1;exitX=0.5;exitY=1;exitDx=0;exitDy=0;" parent="1" source="38tED85UZ_nWDZIvIJqj-2" target="38tED85UZ_nWDZIvIJqj-12" edge="1">
          <mxGeometry relative="1" as="geometry">
            <mxPoint x="705" y="390" as="targetPoint" />
          </mxGeometry>
        </mxCell>
        <mxCell id="38tED85UZ_nWDZIvIJqj-2" value="&lt;div&gt;&lt;font color=&quot;#080808&quot; face=&quot;jetbrains mono, monospace&quot;&gt;&lt;span style=&quot;font-size: 13.0667px&quot;&gt;AbstractBeanFactory.java&lt;/span&gt;&lt;/font&gt;&lt;/div&gt;&lt;div&gt;&lt;font color=&quot;#080808&quot; face=&quot;jetbrains mono, monospace&quot;&gt;&lt;span style=&quot;font-size: 13.0667px&quot;&gt;transformedBeanName(name);&lt;/span&gt;&lt;/font&gt;&lt;/div&gt;" style="rounded=1;whiteSpace=wrap;html=1;" parent="1" vertex="1">
          <mxGeometry x="590" y="250" width="230" height="60" as="geometry" />
        </mxCell>
        <mxCell id="38tED85UZ_nWDZIvIJqj-8" value="场景描述：Spring首次启动" style="shape=document;whiteSpace=wrap;html=1;boundedLbl=1;fillColor=#e1d5e7;strokeColor=#9673a6;" parent="1" vertex="1">
          <mxGeometry x="70" y="50" width="120" height="80" as="geometry" />
        </mxCell>
        <mxCell id="38tED85UZ_nWDZIvIJqj-10" value="&lt;div&gt;&lt;font color=&quot;#080808&quot; face=&quot;jetbrains mono, monospace&quot;&gt;&lt;span style=&quot;font-size: 13.0667px&quot;&gt;AbstractBeanFactory.java&lt;/span&gt;&lt;/font&gt;&lt;/div&gt;&lt;div&gt;&lt;font color=&quot;#080808&quot; face=&quot;jetbrains mono, monospace&quot;&gt;&lt;span style=&quot;font-size: 13.0667px&quot;&gt;doGetBean(...)&lt;/span&gt;&lt;/font&gt;&lt;/div&gt;" style="shape=parallelogram;perimeter=parallelogramPerimeter;whiteSpace=wrap;html=1;fixedSize=1;" parent="1" vertex="1">
          <mxGeometry x="587.5" y="120" width="235" height="60" as="geometry" />
        </mxCell>
        <mxCell id="38tED85UZ_nWDZIvIJqj-15" style="edgeStyle=orthogonalEdgeStyle;rounded=0;orthogonalLoop=1;jettySize=auto;html=1;exitX=0;exitY=1;exitDx=0;exitDy=0;" parent="1" source="38tED85UZ_nWDZIvIJqj-12" target="38tED85UZ_nWDZIvIJqj-14" edge="1">
          <mxGeometry relative="1" as="geometry" />
        </mxCell>
        <mxCell id="38tED85UZ_nWDZIvIJqj-16" value="三级缓存中没有" style="edgeLabel;html=1;align=center;verticalAlign=middle;resizable=0;points=[];" parent="38tED85UZ_nWDZIvIJqj-15" vertex="1" connectable="0">
          <mxGeometry x="-0.0722" relative="1" as="geometry">
            <mxPoint x="-5" as="offset" />
          </mxGeometry>
        </mxCell>
        <mxCell id="38tED85UZ_nWDZIvIJqj-12" value="&lt;div&gt;AbstractBeanFactory.java&lt;/div&gt;&lt;div&gt;getSingleton(beanName);&lt;/div&gt;" style="rhombus;whiteSpace=wrap;html=1;" parent="1" vertex="1">
          <mxGeometry x="565" y="390" width="280" height="90" as="geometry" />
        </mxCell>
        <mxCell id="38tED85UZ_nWDZIvIJqj-13" style="edgeStyle=orthogonalEdgeStyle;rounded=0;orthogonalLoop=1;jettySize=auto;html=1;" parent="1" edge="1">
          <mxGeometry relative="1" as="geometry">
            <mxPoint x="820" y="440" as="sourcePoint" />
            <mxPoint x="820" y="460" as="targetPoint" />
          </mxGeometry>
        </mxCell>
        <mxCell id="38tED85UZ_nWDZIvIJqj-18" style="edgeStyle=orthogonalEdgeStyle;rounded=0;orthogonalLoop=1;jettySize=auto;html=1;exitX=0.5;exitY=1;exitDx=0;exitDy=0;entryX=0.5;entryY=0;entryDx=0;entryDy=0;" parent="1" source="38tED85UZ_nWDZIvIJqj-14" target="38tED85UZ_nWDZIvIJqj-17" edge="1">
          <mxGeometry relative="1" as="geometry" />
        </mxCell>
        <mxCell id="38tED85UZ_nWDZIvIJqj-14" value="&lt;div&gt;AbstractBeanFactory.java&lt;/div&gt;&lt;div&gt;transformedBeanName(name);&lt;/div&gt;" style="rounded=1;whiteSpace=wrap;html=1;" parent="1" vertex="1">
          <mxGeometry x="390" y="560" width="230" height="60" as="geometry" />
        </mxCell>
        <mxCell id="38tED85UZ_nWDZIvIJqj-22" style="edgeStyle=orthogonalEdgeStyle;rounded=0;orthogonalLoop=1;jettySize=auto;html=1;exitX=0;exitY=0.5;exitDx=0;exitDy=0;entryX=1;entryY=0.5;entryDx=0;entryDy=0;" parent="1" source="38tED85UZ_nWDZIvIJqj-17" target="38tED85UZ_nWDZIvIJqj-19" edge="1">
          <mxGeometry relative="1" as="geometry" />
        </mxCell>
        <mxCell id="38tED85UZ_nWDZIvIJqj-23" value="" style="edgeStyle=orthogonalEdgeStyle;rounded=0;orthogonalLoop=1;jettySize=auto;html=1;" parent="1" source="38tED85UZ_nWDZIvIJqj-17" target="38tED85UZ_nWDZIvIJqj-19" edge="1">
          <mxGeometry relative="1" as="geometry" />
        </mxCell>
        <mxCell id="38tED85UZ_nWDZIvIJqj-24" value="否" style="edgeLabel;html=1;align=center;verticalAlign=middle;resizable=0;points=[];" parent="38tED85UZ_nWDZIvIJqj-23" vertex="1" connectable="0">
          <mxGeometry x="0.08" y="2" relative="1" as="geometry">
            <mxPoint as="offset" />
          </mxGeometry>
        </mxCell>
        <mxCell id="38tED85UZ_nWDZIvIJqj-26" style="edgeStyle=orthogonalEdgeStyle;rounded=0;orthogonalLoop=1;jettySize=auto;html=1;exitX=0.5;exitY=1;exitDx=0;exitDy=0;entryX=0.5;entryY=0;entryDx=0;entryDy=0;" parent="1" source="38tED85UZ_nWDZIvIJqj-17" target="38tED85UZ_nWDZIvIJqj-25" edge="1">
          <mxGeometry relative="1" as="geometry" />
        </mxCell>
        <mxCell id="38tED85UZ_nWDZIvIJqj-27" value="是" style="edgeLabel;html=1;align=center;verticalAlign=middle;resizable=0;points=[];" parent="38tED85UZ_nWDZIvIJqj-26" vertex="1" connectable="0">
          <mxGeometry x="-0.1529" relative="1" as="geometry">
            <mxPoint as="offset" />
          </mxGeometry>
        </mxCell>
        <mxCell id="38tED85UZ_nWDZIvIJqj-17" value="&lt;div&gt;当前容器中是否存在当前beanName的&lt;/div&gt;&lt;div&gt;BeanDefinition&lt;/div&gt;" style="rhombus;whiteSpace=wrap;html=1;" parent="1" vertex="1">
          <mxGeometry x="347.5" y="685" width="315" height="100" as="geometry" />
        </mxCell>
        <mxCell id="38tED85UZ_nWDZIvIJqj-19" value="&lt;div&gt;// 如果当前容器中没有当前beanName的&lt;/div&gt;&lt;div&gt;BeanDefinition，并且存在父容器，则去&lt;/div&gt;&lt;div&gt;父容器中找，并返回。&lt;/div&gt;&lt;div&gt;parentBeanFactory != null&amp;nbsp;&lt;/div&gt;&lt;div&gt;&amp;amp;&amp;amp; !containsBeanDefinition(beanName)&lt;/div&gt;" style="rounded=1;whiteSpace=wrap;html=1;" parent="1" vertex="1">
          <mxGeometry x="-30" y="685" width="260" height="100" as="geometry" />
        </mxCell>
        <mxCell id="38tED85UZ_nWDZIvIJqj-29" style="edgeStyle=orthogonalEdgeStyle;rounded=0;orthogonalLoop=1;jettySize=auto;html=1;exitX=0.5;exitY=1;exitDx=0;exitDy=0;entryX=0.5;entryY=0;entryDx=0;entryDy=0;" parent="1" source="38tED85UZ_nWDZIvIJqj-25" target="38tED85UZ_nWDZIvIJqj-28" edge="1">
          <mxGeometry relative="1" as="geometry" />
        </mxCell>
        <mxCell id="38tED85UZ_nWDZIvIJqj-25" value="&lt;div&gt;AbstractBeanFactory.java&lt;/div&gt;&lt;div&gt;解析@dependsOn注解&lt;/div&gt;" style="rounded=1;whiteSpace=wrap;html=1;" parent="1" vertex="1">
          <mxGeometry x="390" y="870" width="230" height="60" as="geometry" />
        </mxCell>
        <mxCell id="38tED85UZ_nWDZIvIJqj-31" style="edgeStyle=orthogonalEdgeStyle;rounded=0;orthogonalLoop=1;jettySize=auto;html=1;exitX=1;exitY=0;exitDx=0;exitDy=0;entryX=0;entryY=0.5;entryDx=0;entryDy=0;" parent="1" source="38tED85UZ_nWDZIvIJqj-28" target="38tED85UZ_nWDZIvIJqj-30" edge="1">
          <mxGeometry relative="1" as="geometry" />
        </mxCell>
        <mxCell id="38tED85UZ_nWDZIvIJqj-32" value="singleton" style="edgeLabel;html=1;align=center;verticalAlign=middle;resizable=0;points=[];" parent="38tED85UZ_nWDZIvIJqj-31" vertex="1" connectable="0">
          <mxGeometry x="0.1341" y="-2" relative="1" as="geometry">
            <mxPoint x="1" as="offset" />
          </mxGeometry>
        </mxCell>
        <mxCell id="38tED85UZ_nWDZIvIJqj-28" value="判断bean的scope属性" style="rhombus;whiteSpace=wrap;html=1;" parent="1" vertex="1">
          <mxGeometry x="365" y="1040" width="280" height="60" as="geometry" />
        </mxCell>
        <mxCell id="38tED85UZ_nWDZIvIJqj-34" style="edgeStyle=orthogonalEdgeStyle;rounded=0;orthogonalLoop=1;jettySize=auto;html=1;exitX=0.5;exitY=1;exitDx=0;exitDy=0;" parent="1" source="38tED85UZ_nWDZIvIJqj-30" edge="1">
          <mxGeometry relative="1" as="geometry">
            <mxPoint x="910" y="1130" as="targetPoint" />
          </mxGeometry>
        </mxCell>
        <mxCell id="38tED85UZ_nWDZIvIJqj-30" value="&lt;div style=&quot;text-align: center&quot;&gt;AbstractBeanFactory.java&lt;/div&gt;&lt;div&gt;getSingleton(beanName, () -&amp;gt; {&lt;/div&gt;&lt;div&gt;&amp;nbsp; &amp;nbsp; return createBean(beanName, mbd, args);&lt;/div&gt;&lt;div&gt;&amp;nbsp;});&lt;/div&gt;&lt;div&gt;&amp;nbsp; &amp;nbsp;&lt;/div&gt;" style="rounded=1;whiteSpace=wrap;html=1;align=left;" parent="1" vertex="1">
          <mxGeometry x="787.5" y="970" width="245" height="80" as="geometry" />
        </mxCell>
        <mxCell id="38tED85UZ_nWDZIvIJqj-37" style="edgeStyle=orthogonalEdgeStyle;rounded=0;orthogonalLoop=1;jettySize=auto;html=1;exitX=0.5;exitY=1;exitDx=0;exitDy=0;entryX=0.5;entryY=0;entryDx=0;entryDy=0;" parent="1" source="38tED85UZ_nWDZIvIJqj-35" target="38tED85UZ_nWDZIvIJqj-36" edge="1">
          <mxGeometry relative="1" as="geometry" />
        </mxCell>
        <mxCell id="38tED85UZ_nWDZIvIJqj-40" value="调用上文传来的lambda函数" style="edgeStyle=orthogonalEdgeStyle;rounded=0;orthogonalLoop=1;jettySize=auto;html=1;" parent="1" source="38tED85UZ_nWDZIvIJqj-35" target="38tED85UZ_nWDZIvIJqj-30" edge="1">
          <mxGeometry relative="1" as="geometry" />
        </mxCell>
        <mxCell id="0XE6-9rxxqehGDU4GbFl-5" style="edgeStyle=orthogonalEdgeStyle;rounded=0;orthogonalLoop=1;jettySize=auto;html=1;exitX=1;exitY=0.5;exitDx=0;exitDy=0;" edge="1" parent="1" source="38tED85UZ_nWDZIvIJqj-35" target="0XE6-9rxxqehGDU4GbFl-4">
          <mxGeometry relative="1" as="geometry" />
        </mxCell>
        <mxCell id="38tED85UZ_nWDZIvIJqj-35" value="&lt;div&gt;DefaultSingletonBeanRegistry.java&lt;/div&gt;&lt;div&gt;singletonFactory.getObject()&lt;/div&gt;" style="rounded=1;whiteSpace=wrap;html=1;" parent="1" vertex="1">
          <mxGeometry x="790" y="1130" width="240" height="60" as="geometry" />
        </mxCell>
        <mxCell id="38tED85UZ_nWDZIvIJqj-38" value="" style="edgeStyle=orthogonalEdgeStyle;rounded=0;orthogonalLoop=1;jettySize=auto;html=1;" parent="1" source="38tED85UZ_nWDZIvIJqj-36" target="38tED85UZ_nWDZIvIJqj-35" edge="1">
          <mxGeometry relative="1" as="geometry" />
        </mxCell>
        <mxCell id="38tED85UZ_nWDZIvIJqj-39" value="将创建好的bean放入singletonObjects" style="edgeLabel;html=1;align=center;verticalAlign=middle;resizable=0;points=[];" parent="38tED85UZ_nWDZIvIJqj-38" vertex="1" connectable="0">
          <mxGeometry y="-3" relative="1" as="geometry">
            <mxPoint x="1" as="offset" />
          </mxGeometry>
        </mxCell>
        <mxCell id="38tED85UZ_nWDZIvIJqj-36" value="&lt;div&gt;DefaultSingletonBeanRegistry.java&lt;/div&gt;&lt;div&gt;addSingleton(beanName, singletonObject);&lt;/div&gt;" style="rounded=1;whiteSpace=wrap;html=1;fillColor=#f8cecc;strokeColor=#b85450;" parent="1" vertex="1">
          <mxGeometry x="777.5" y="1260" width="265" height="50" as="geometry" />
        </mxCell>
        <mxCell id="0XE6-9rxxqehGDU4GbFl-3" value="afterSingletonCreation(beanName);" style="rounded=1;whiteSpace=wrap;html=1;fillColor=#dae8fc;strokeColor=#6c8ebf;" vertex="1" parent="1">
          <mxGeometry x="745" y="1470" width="325" height="60" as="geometry" />
        </mxCell>
        <mxCell id="0XE6-9rxxqehGDU4GbFl-7" style="edgeStyle=orthogonalEdgeStyle;rounded=0;orthogonalLoop=1;jettySize=auto;html=1;exitX=1;exitY=0.5;exitDx=0;exitDy=0;entryX=0;entryY=0.5;entryDx=0;entryDy=0;" edge="1" parent="1" source="0XE6-9rxxqehGDU4GbFl-4" target="0XE6-9rxxqehGDU4GbFl-6">
          <mxGeometry relative="1" as="geometry" />
        </mxCell>
        <mxCell id="0XE6-9rxxqehGDU4GbFl-10" style="edgeStyle=orthogonalEdgeStyle;rounded=0;orthogonalLoop=1;jettySize=auto;html=1;exitX=1;exitY=0.5;exitDx=0;exitDy=0;" edge="1" parent="1" source="0XE6-9rxxqehGDU4GbFl-4" target="0XE6-9rxxqehGDU4GbFl-9">
          <mxGeometry relative="1" as="geometry" />
        </mxCell>
        <mxCell id="0XE6-9rxxqehGDU4GbFl-14" style="edgeStyle=orthogonalEdgeStyle;rounded=0;orthogonalLoop=1;jettySize=auto;html=1;exitX=1;exitY=0.5;exitDx=0;exitDy=0;entryX=0;entryY=0.5;entryDx=0;entryDy=0;" edge="1" parent="1" source="0XE6-9rxxqehGDU4GbFl-4" target="0XE6-9rxxqehGDU4GbFl-11">
          <mxGeometry relative="1" as="geometry" />
        </mxCell>
        <mxCell id="0XE6-9rxxqehGDU4GbFl-16" style="edgeStyle=orthogonalEdgeStyle;rounded=0;orthogonalLoop=1;jettySize=auto;html=1;exitX=1;exitY=0.5;exitDx=0;exitDy=0;entryX=0;entryY=0.5;entryDx=0;entryDy=0;" edge="1" parent="1" source="0XE6-9rxxqehGDU4GbFl-4" target="0XE6-9rxxqehGDU4GbFl-15">
          <mxGeometry relative="1" as="geometry" />
        </mxCell>
        <mxCell id="0XE6-9rxxqehGDU4GbFl-4" value="&lt;span style=&quot;font-size: 13.0667px&quot;&gt;AbstractAutowireCapableBeanFactory&lt;/span&gt;&lt;span style=&quot;font-size: 13.0667px&quot;&gt;.java&lt;/span&gt;&lt;span style=&quot;font-size: 13.0667px&quot;&gt;&lt;br&gt;&lt;/span&gt;&lt;span style=&quot;font-size: 13.0667px&quot;&gt;createBean&lt;/span&gt;&lt;span style=&quot;font-size: 13.0667px&quot;&gt;()&lt;/span&gt;&lt;span style=&quot;font-size: 13.0667px&quot;&gt;&lt;br&gt;&lt;/span&gt;" style="rounded=1;whiteSpace=wrap;html=1;" vertex="1" parent="1">
          <mxGeometry x="1110" y="1130" width="280" height="60" as="geometry" />
        </mxCell>
        <mxCell id="0XE6-9rxxqehGDU4GbFl-6" value="&lt;span style=&quot;font-size: 13.0667px&quot;&gt;// 通过classLoad加载类AbstractAutowireCapableBeanFactory&lt;/span&gt;&lt;span style=&quot;font-size: 13.0667px&quot;&gt;.java&lt;/span&gt;&lt;span style=&quot;font-size: 13.0667px&quot;&gt;&lt;br&gt;&lt;/span&gt;&lt;span style=&quot;font-size: 13.0667px&quot;&gt;resolveBeanClass(mbd, beanName);&lt;/span&gt;" style="rounded=1;whiteSpace=wrap;html=1;" vertex="1" parent="1">
          <mxGeometry x="1497" y="1080" width="280" height="60" as="geometry" />
        </mxCell>
        <mxCell id="0XE6-9rxxqehGDU4GbFl-9" value="&lt;span style=&quot;font-size: 13.0667px&quot;&gt;// 解析@Lookup注解&lt;br&gt;AbstractAutowireCapableBeanFactory&lt;/span&gt;&lt;span style=&quot;font-size: 13.0667px&quot;&gt;.java&lt;/span&gt;&lt;span style=&quot;font-size: 13.0667px&quot;&gt;&lt;br&gt;&lt;/span&gt;&lt;span style=&quot;font-size: 13.0667px&quot;&gt;mbdToUse.prepareMethodOverrides();&lt;/span&gt;" style="rounded=1;whiteSpace=wrap;html=1;" vertex="1" parent="1">
          <mxGeometry x="1497" y="1170" width="280" height="60" as="geometry" />
        </mxCell>
        <mxCell id="0XE6-9rxxqehGDU4GbFl-13" style="edgeStyle=orthogonalEdgeStyle;rounded=0;orthogonalLoop=1;jettySize=auto;html=1;exitX=1;exitY=0.5;exitDx=0;exitDy=0;entryX=0;entryY=0.5;entryDx=0;entryDy=0;" edge="1" parent="1" source="0XE6-9rxxqehGDU4GbFl-11" target="0XE6-9rxxqehGDU4GbFl-12">
          <mxGeometry relative="1" as="geometry" />
        </mxCell>
        <mxCell id="0XE6-9rxxqehGDU4GbFl-11" value="&lt;span style=&quot;font-size: 13.0667px&quot;&gt;AbstractAutowireCapableBeanFactory&lt;/span&gt;&lt;span style=&quot;font-size: 13.0667px&quot;&gt;.java&lt;/span&gt;&lt;span style=&quot;font-size: 13.0667px&quot;&gt;&lt;br&gt;&lt;/span&gt;&lt;span style=&quot;font-size: 13.0667px&quot;&gt;resolveBeforeInstantiation(beanName, mbdToUse);&lt;/span&gt;" style="rounded=1;whiteSpace=wrap;html=1;" vertex="1" parent="1">
          <mxGeometry x="1497" y="1270" width="313" height="50" as="geometry" />
        </mxCell>
        <mxCell id="0XE6-9rxxqehGDU4GbFl-12" value="&lt;span style=&quot;font-size: 13.0667px&quot;&gt;在初始化前调用InstantiationAwareBeanPostProcessor的postProcessBeforeInstantiation方法&lt;/span&gt;&lt;span style=&quot;font-size: 13.0667px&quot;&gt;&lt;br&gt;&lt;/span&gt;" style="rounded=1;whiteSpace=wrap;html=1;" vertex="1" parent="1">
          <mxGeometry x="1870" y="1170" width="293" height="55" as="geometry" />
        </mxCell>
        <mxCell id="0XE6-9rxxqehGDU4GbFl-18" style="edgeStyle=orthogonalEdgeStyle;rounded=0;orthogonalLoop=1;jettySize=auto;html=1;exitX=1;exitY=0.5;exitDx=0;exitDy=0;entryX=0;entryY=0.5;entryDx=0;entryDy=0;" edge="1" parent="1" source="0XE6-9rxxqehGDU4GbFl-15" target="0XE6-9rxxqehGDU4GbFl-17">
          <mxGeometry relative="1" as="geometry" />
        </mxCell>
        <mxCell id="0XE6-9rxxqehGDU4GbFl-21" style="edgeStyle=orthogonalEdgeStyle;rounded=0;orthogonalLoop=1;jettySize=auto;html=1;exitX=1;exitY=0.5;exitDx=0;exitDy=0;entryX=0;entryY=0.5;entryDx=0;entryDy=0;" edge="1" parent="1" source="0XE6-9rxxqehGDU4GbFl-15" target="0XE6-9rxxqehGDU4GbFl-20">
          <mxGeometry relative="1" as="geometry" />
        </mxCell>
        <mxCell id="0XE6-9rxxqehGDU4GbFl-15" value="&lt;span style=&quot;font-size: 13.0667px&quot;&gt;AbstractAutowireCapableBeanFactory&lt;/span&gt;&lt;span style=&quot;font-size: 13.0667px&quot;&gt;.java&lt;/span&gt;&lt;span style=&quot;font-size: 13.0667px&quot;&gt;&lt;br&gt;&lt;/span&gt;&lt;span style=&quot;font-size: 13.0667px&quot;&gt;doCreateBean(beanName, mbdToUse, args)&lt;/span&gt;" style="rounded=1;whiteSpace=wrap;html=1;" vertex="1" parent="1">
          <mxGeometry x="1497" y="1370" width="283" height="50" as="geometry" />
        </mxCell>
        <mxCell id="0XE6-9rxxqehGDU4GbFl-17" value="&lt;span style=&quot;font-size: 13.0667px&quot;&gt;// 根据推断构造方法并创建类对象实例AbstractAutowireCapableBeanFactory&lt;/span&gt;&lt;span style=&quot;font-size: 13.0667px&quot;&gt;.java&lt;/span&gt;&lt;span style=&quot;font-size: 13.0667px&quot;&gt;&lt;br&gt;&lt;/span&gt;&lt;span style=&quot;font-size: 13.0667px&quot;&gt;createBeanInstance(beanName, mbd, args)&lt;/span&gt;" style="rounded=1;whiteSpace=wrap;html=1;" vertex="1" parent="1">
          <mxGeometry x="1900" y="1330" width="280" height="60" as="geometry" />
        </mxCell>
        <mxCell id="0XE6-9rxxqehGDU4GbFl-23" value="可能出现" style="edgeStyle=orthogonalEdgeStyle;rounded=0;orthogonalLoop=1;jettySize=auto;html=1;exitX=1;exitY=0.5;exitDx=0;exitDy=0;" edge="1" parent="1" source="0XE6-9rxxqehGDU4GbFl-20" target="0XE6-9rxxqehGDU4GbFl-22">
          <mxGeometry relative="1" as="geometry" />
        </mxCell>
        <mxCell id="0XE6-9rxxqehGDU4GbFl-20" value="&lt;div&gt;&lt;span style=&quot;font-size: 13.0667px&quot;&gt;// 判断是否可能出现循环依赖&lt;/span&gt;&lt;/div&gt;&lt;div&gt;&lt;span style=&quot;font-size: 13.0667px&quot;&gt;(mbd.isSingleton() &amp;amp;&amp;amp; this.allowCircularReferences &amp;amp;&amp;amp;&lt;/span&gt;&lt;/div&gt;&lt;div&gt;&lt;span style=&quot;font-size: 13.0667px&quot;&gt;&lt;span&gt;				&lt;/span&gt;isSingletonCurrentlyInCreation(beanName))&lt;/span&gt;&lt;/div&gt;" style="rhombus;whiteSpace=wrap;html=1;" vertex="1" parent="1">
          <mxGeometry x="1900" y="1410" width="390" height="120" as="geometry" />
        </mxCell>
        <mxCell id="0XE6-9rxxqehGDU4GbFl-25" style="edgeStyle=orthogonalEdgeStyle;rounded=0;orthogonalLoop=1;jettySize=auto;html=1;exitX=1;exitY=0.5;exitDx=0;exitDy=0;entryX=0;entryY=0.5;entryDx=0;entryDy=0;" edge="1" parent="1" source="0XE6-9rxxqehGDU4GbFl-22" target="0XE6-9rxxqehGDU4GbFl-24">
          <mxGeometry relative="1" as="geometry" />
        </mxCell>
        <mxCell id="0XE6-9rxxqehGDU4GbFl-22" value="&lt;span style=&quot;font-size: 13.0667px&quot;&gt;addSingletonFactory(beanName, () -&amp;gt; getEarlyBeanReference(beanName, mbd, bean));&lt;/span&gt;" style="rounded=1;whiteSpace=wrap;html=1;" vertex="1" parent="1">
          <mxGeometry x="2380" y="1440" width="280" height="60" as="geometry" />
        </mxCell>
        <mxCell id="0XE6-9rxxqehGDU4GbFl-26" style="edgeStyle=orthogonalEdgeStyle;rounded=0;orthogonalLoop=1;jettySize=auto;html=1;exitX=1;exitY=0.5;exitDx=0;exitDy=0;" edge="1" parent="1" source="0XE6-9rxxqehGDU4GbFl-24">
          <mxGeometry relative="1" as="geometry">
            <mxPoint x="3100" y="1470" as="targetPoint" />
          </mxGeometry>
        </mxCell>
        <mxCell id="0XE6-9rxxqehGDU4GbFl-24" value="&lt;span style=&quot;font-size: 13.0667px&quot;&gt;&amp;nbsp;() -&amp;gt; getEarlyBeanReference(beanName, mbd, bean)主要用来判断是否需要 AOP 如果需要返回代理Bean对象，如果不需要就返回原始Bean对象&lt;/span&gt;" style="rhombus;whiteSpace=wrap;html=1;" vertex="1" parent="1">
          <mxGeometry x="2700" y="1410" width="310" height="120" as="geometry" />
        </mxCell>
        <mxCell id="0XE6-9rxxqehGDU4GbFl-27" value="&lt;span style=&quot;font-size: 13.0667px&quot;&gt;addSingletonFactory(beanName, () -&amp;gt; getEarlyBeanReference(beanName, mbd, bean));&lt;/span&gt;" style="rounded=1;whiteSpace=wrap;html=1;" vertex="1" parent="1">
          <mxGeometry x="3110" y="1440" width="280" height="60" as="geometry" />
        </mxCell>
      </root>
    </mxGraphModel>
  </diagram>
</mxfile>
